<svg xmlns="http://www.w3.org/2000/svg" width="1250" height="500" fill="#000000" stroke="#222222" stroke-width="1" viewBox="0 0 1250 500">
  <path d="M 50 50 L 100 50 L 100 100 L 50 100 Z"/>
  <path d="M 150 50 L 200 50 L 200 100 L 150 100 Z"/>
  <path d="M 250 100 L 300 100 L 300 150 L 250 150 Z"/>
  <path d="M 350 50 L 400 50 L 400 100 L 350 100 Z"/>
  <path d="M 450 50 L 500 50 L 500 100 L 450 100 Z"/>
  <path d="M 550 50 L 600 50 L 600 100 L 550 100 Z"/>
  <path d="M 650 50 L 700 50 L 700 100 L 650 100 Z"/>
  <path d="M 750 50 L 800 50 L 800 100 L 750 100 Z"/>
  <path d="M 850 50 L 900 50 L 900 100 L 850 100 Z"/>
  <path d="M 950 100 L 1000 100 L 1000 150 L 950 150 Z"/>
  <path d="M 1050 50 L 1100 50 L 1100 100 L 1050 100 Z"/>
  <path d="M 1150 50 L 1200 50 L 1200 100 L 1150 100 Z"/>
  <path d="M 50 150 L 100 150 L 100 200 L 50 200 Z"/>
  <path d="M 150 150 L 200 150 L 200 200 L 150 200 Z"/>
  <path d="M 250 200 L 300 200 L 300 250 L 250 250 Z"/>
  <path d="M 350 150 L 400 150 L 400 200 L 350 200 Z"/>
  <path d="M 450 150 L 500 150 L 500 200 L 450 200 Z"/>
  <path d="M 550 150 L 600 150 L 600 200 L 550 200 Z"/>
  <path d="M 650 150 L 700 150 L 700 200 L 650 200 Z"/>
  <path d="M 750 150 L 800 150 L 800 200 L 750 200 Z"/>
  <path d="M 850 150 L 900 150 L 900 200 L 850 200 Z"/>
  <path d="M 950 200 L 1000 200 L 1000 250 L 950 250 Z"/>
  <path d="M 1050 150 L 1100 150 L 1100 200 L 1050 200 Z"/>
  <path d="M 1150 150 L 1200 150 L 1200 200 L 1150 200 Z"/>
  <path d="M 50 250 L 100 250 L 100 300 L 50 300 Z"/>
  <path d="M 150 250 L 200 250 L 200 300 L 150 300 Z"/>
  <path d="M 250 300 L 300 300 L 300 350 L 250 350 Z"/>
  <path d="M 350 250 L 400 250 L 400 300 L 350 300 Z"/>
  <path d="M 450 250 L 500 250 L 500 300 L 450 300 Z"/>
  <path d="M 550 250 L 600 250 L 600 300 L 550 300 Z"/>
  <path d="M 650 250 L 700 250 L 700 300 L 650 300 Z"/>
  <path d="M 750 250 L 800 250 L 800 300 L 750 300 Z"/>
  <path d="M 850 250 L 900 250 L 900 300 L 850 300 Z"/>
  <path d="M 950 300 L 1000 300 L 1000 350 L 950 350 Z"/>
  <path d="M 1050 250 L 1100 250 L 1100 300 L 1050 300 Z"/>
  <path d="M 1150 250 L 1200 250 L 1200 300 L 1150 300 Z"/>
  <path d="M 50 350 L 100 350 L 100 400 L 50 400 Z"/>
  <path d="M 150 350 L 200 350 L 200 400 L 150 400 Z"/>
  <path d="M 250 400 L 300 400 L 300 500 L 250 500 Z"/>
  <path d="M 350 350 L 400 350 L 400 400 L 350 400 Z"/>
  <path d="M 450 350 L 500 350 L 500 400 L 450 400 Z"/>
  <path d="M 550 350 L 700 350 L 700 500 L 550 500 Z"/>
  <path d="M 750 350 L 800 350 L 800 400 L 750 400 Z"/>
  <path d="M 850 350 L 900 350 L 900 400 L 850 400 Z"/>
  <path d="M 950 400 L 1000 400 L 1000 500 L 950 500 Z"/>
  <path d="M 1050 350 L 1100 350 L 1100 400 L 1050 400 Z"/>
  <path d="M 1150 350 L 1200 350 L 1200 400 L 1150 400 Z"/>
</svg>
